<svg width="16" height="17" viewBox="0 0 16 17" fill="none" xmlns="http://www.w3.org/2000/svg">
<path d="M7.99992 11.1667C9.47268 11.1667 10.6666 9.9728 10.6666 8.50004C10.6666 7.02728 9.47268 5.83337 7.99992 5.83337C6.52716 5.83337 5.33325 7.02728 5.33325 8.50004C5.33325 9.9728 6.52716 11.1667 7.99992 11.1667Z" stroke-linecap="round" stroke-linejoin="round"/>
<path d="M10.6666 5.83338V9.16671C10.6666 9.69715 10.8773 10.2059 11.2524 10.5809C11.6275 10.956 12.1362 11.1667 12.6666 11.1667C13.197 11.1667 13.7057 10.956 14.0808 10.5809C14.4559 10.2059 14.6666 9.69715 14.6666 9.16671V8.50005C14.6666 6.99825 14.1595 5.54044 13.2275 4.36282C12.2955 3.1852 10.9932 2.35676 9.53161 2.01172C8.06999 1.66668 6.53468 1.82525 5.17444 2.46175C3.81419 3.09824 2.7087 4.17537 2.03708 5.51862C1.36545 6.86187 1.16704 8.39254 1.47399 9.86263C1.78094 11.3327 2.57527 12.6561 3.72828 13.6184C4.88128 14.5807 6.32542 15.1254 7.82671 15.1645C9.328 15.2035 10.7985 14.7345 11.9999 13.8334" stroke-linecap="round" stroke-linejoin="round"/>
</svg>
