<svg width="15" height="15" viewBox="0 0 15 15" fill="none" xmlns="http://www.w3.org/2000/svg">
<path d="M9.37511 13.75V11.25C9.46206 10.4671 9.23757 9.68133 8.75011 9.0625C10.6251 9.0625 12.5001 7.8125 12.5001 5.625C12.5501 4.84375 12.3314 4.075 11.8751 3.4375C12.0501 2.71875 12.0501 1.96875 11.8751 1.25C11.8751 1.25 11.2501 1.25 10.0001 2.1875C8.35011 1.875 6.65011 1.875 5.00011 2.1875C3.75011 1.25 3.12511 1.25 3.12511 1.25C2.93761 1.96875 2.93761 2.71875 3.12511 3.4375C2.67004 4.07243 2.44916 4.84549 2.50011 5.625C2.50011 7.8125 4.37511 9.0625 6.25011 9.0625C6.00636 9.36875 5.82511 9.71875 5.71886 10.0937C5.61261 10.4687 5.58136 10.8625 5.62511 11.25V13.75" stroke-linecap="round" stroke-linejoin="round"/>
<path d="M5.625 11.25C2.80625 12.5 2.5 10 1.25 10" stroke-linecap="round" stroke-linejoin="round"/>
</svg>
