<svg width="15" height="15" viewBox="0 0 15 15" fill="none" xmlns="http://www.w3.org/2000/svg">
<g clip-path="url(#clip0_5017_1255)">
<path d="M8.4375 4.375C8.61009 4.375 8.75 4.23509 8.75 4.0625C8.75 3.88991 8.61009 3.75 8.4375 3.75C8.26491 3.75 8.125 3.88991 8.125 4.0625C8.125 4.23509 8.26491 4.375 8.4375 4.375Z" stroke-linecap="round" stroke-linejoin="round"/>
<path d="M10.9375 6.875C11.1101 6.875 11.25 6.73509 11.25 6.5625C11.25 6.38991 11.1101 6.25 10.9375 6.25C10.7649 6.25 10.625 6.38991 10.625 6.5625C10.625 6.73509 10.7649 6.875 10.9375 6.875Z" stroke-linecap="round" stroke-linejoin="round"/>
<path d="M5.3125 5C5.48509 5 5.625 4.86009 5.625 4.6875C5.625 4.51491 5.48509 4.375 5.3125 4.375C5.13991 4.375 5 4.51491 5 4.6875C5 4.86009 5.13991 5 5.3125 5Z" stroke-linecap="round" stroke-linejoin="round"/>
<path d="M4.0625 8.125C4.23509 8.125 4.375 7.98509 4.375 7.8125C4.375 7.63991 4.23509 7.5 4.0625 7.5C3.88991 7.5 3.75 7.63991 3.75 7.8125C3.75 7.98509 3.88991 8.125 4.0625 8.125Z" stroke-linecap="round" stroke-linejoin="round"/>
<path d="M7.5 1.25C4.0625 1.25 1.25 4.0625 1.25 7.5C1.25 10.9375 4.0625 13.75 7.5 13.75C8.07875 13.75 8.53 13.2838 8.53 12.695C8.53 12.4219 8.4175 12.1731 8.25688 11.9919C8.07563 11.8113 7.98312 11.5844 7.98312 11.2888C7.98076 11.1512 8.0061 11.0146 8.05765 10.887C8.10921 10.7595 8.18591 10.6436 8.28319 10.5463C8.38047 10.449 8.49634 10.3723 8.62389 10.3208C8.75144 10.2692 8.88807 10.2439 9.02562 10.2462H10.2731C12.18 10.2462 13.745 8.68188 13.745 6.775C13.7281 3.7575 10.9131 1.25 7.5 1.25Z" stroke-linecap="round" stroke-linejoin="round"/>
</g>
<defs>
<clipPath id="clip0_5017_1255">
<rect width="15" height="15" fill="white"/>
</clipPath>
</defs>
</svg>
