<svg width="15" height="15" viewBox="0 0 15 15" fill="none" xmlns="http://www.w3.org/2000/svg">
<path d="M3.75 1.875V9.375" stroke-linecap="round" stroke-linejoin="round"/>
<path d="M11.25 5.625C12.2855 5.625 13.125 4.78553 13.125 3.75C13.125 2.71447 12.2855 1.875 11.25 1.875C10.2145 1.875 9.375 2.71447 9.375 3.75C9.375 4.78553 10.2145 5.625 11.25 5.625Z" stroke-linecap="round" stroke-linejoin="round"/>
<path d="M3.75 13.125C4.78553 13.125 5.625 12.2855 5.625 11.25C5.625 10.2145 4.78553 9.375 3.75 9.375C2.71447 9.375 1.875 10.2145 1.875 11.25C1.875 12.2855 2.71447 13.125 3.75 13.125Z" stroke-linecap="round" stroke-linejoin="round"/>
<path d="M11.25 5.625C11.25 7.11684 10.6574 8.54758 9.60248 9.60248C8.54758 10.6574 7.11684 11.25 5.625 11.25" stroke-linecap="round" stroke-linejoin="round"/>
</svg>
